<svg width="62" height="16" viewBox="0 0 62 16" fill="none" xmlns="http://www.w3.org/2000/svg">
    <path d="M1.062 6.29744H7.16478V8.0219L4.87624 8.20185C1.16671 8.47176 0 9.44646 0 12.2056V12.7604C0 14.7848 1.40603 15.9994 3.57491 15.9994C5.29505 15.9994 6.26731 15.5945 7.47889 14.3499H7.67334V15.6695H10.1115V3.61328H1.062V6.29744ZM7.16478 12.1006C6.40193 12.8654 5.2801 13.3602 4.33776 13.3602C3.33558 13.3602 2.90181 12.9854 2.93172 12.1456C2.96164 10.976 3.38046 10.7061 5.32497 10.5261L7.16478 10.3462C7.16478 10.3612 7.16478 12.1006 7.16478 12.1006Z" fill="#141E12"/>
    <path d="M58.3646 8.47202L56.5548 8.29208C55.5526 8.18711 55.2983 7.93219 55.2983 7.12244C55.2983 6.20773 55.6573 5.9828 57.0633 5.9828C58.3198 5.9828 58.6788 6.17774 58.8582 7.04746H61.6853C61.6105 4.16836 60.728 3.43359 57.2279 3.43359C53.3987 3.43359 52.4414 4.16836 52.4414 7.12244C52.4414 9.8216 53.1444 10.5564 56.0013 10.8413L57.4971 10.9912C58.8283 11.1112 59.1574 11.3661 59.1574 12.1759C59.1574 13.1656 58.7535 13.4205 57.1231 13.4205C55.6872 13.4205 55.3133 13.1955 55.2385 12.2508H52.3965C52.4713 15.2349 53.3837 15.9997 57.0035 15.9997C61.0421 15.9997 62.0443 15.1899 62.0443 11.9059C61.9994 9.46171 61.2665 8.74193 58.3646 8.47202Z" fill="#141E12"/>
    <path d="M43.2433 8.69695C43.2433 4.79817 41.912 3.43359 38.0679 3.43359C34.2237 3.43359 32.8027 5.20304 32.8027 9.59667C32.8027 14.3952 34.119 15.9997 38.3521 15.9997C41.4035 15.9997 42.6898 15.07 43.1236 12.4308H40.2218C39.8927 13.2405 39.5487 13.4205 38.3072 13.4205C36.4375 13.4205 35.9588 12.8956 35.8541 10.6463H43.0339C43.1685 9.98655 43.2433 9.20679 43.2433 8.69695ZM35.884 8.26208C35.914 6.56761 36.5871 5.93781 38.2025 5.93781C39.8179 5.93781 40.3714 6.56761 40.4162 8.26208H35.884Z" fill="#141E12"/>
    <path d="M20.0737 3.61387H15.362V0H12.3555V15.6701H15.362V6.31303H19.6399V15.6701H22.6464V6.0731H20.0737V3.61387Z" fill="#141E12"/>
    <path d="M44.9336 4.13871V15.6701H47.9401V6.19306H51.5449V3.61387H47.9401V3.28397C47.97 2.57919 48.1346 2.36926 48.7179 2.36926H51.9937V0H48.4636C46.0704 0 44.9336 0.73477 44.9336 4.13871Z" fill="#141E12"/>
    <path d="M24.8594 15.6695H27.8659V6.4474H32.3233V3.61328H24.8594V15.6695Z" fill="#141E12"/>
</svg>
