<svg width="74" height="19" viewBox="0 0 74 19" fill="none" xmlns="http://www.w3.org/2000/svg">
<g clip-path="url(#clip0_2629_44653)">
<path d="M1.2514 7.37988H8.44204V9.40073L5.74555 9.6116C1.37477 9.92791 9.15527e-05 11.0701 9.15527e-05 14.3035V14.9537C9.15527e-05 17.326 1.65676 18.7494 4.21225 18.7494C6.23903 18.7494 7.38459 18.2749 8.81215 16.8164H9.04126V18.3628H11.914V4.23438H1.2514V7.37988ZM8.44204 14.1805C7.54321 15.0767 6.2214 15.6566 5.11108 15.6566C3.93027 15.6566 3.41917 15.2173 3.45442 14.2332C3.48967 12.8625 3.98314 12.5462 6.27427 12.3354L8.44204 12.1245C8.44204 12.1421 8.44204 14.1805 8.44204 14.1805Z" fill="#6B716A"/>
<path d="M68.7694 9.92784L66.6369 9.71697C65.4561 9.59396 65.1565 9.29523 65.1565 8.34631C65.1565 7.27437 65.5795 7.01079 67.2361 7.01079C68.7165 7.01079 69.1395 7.23923 69.351 8.25844H72.682C72.5939 4.8845 71.554 4.02344 67.43 4.02344C62.9182 4.02344 61.7903 4.8845 61.7903 8.34631C61.7903 11.5094 62.6186 12.3704 65.9848 12.7043L67.7472 12.88C69.3158 13.0206 69.7035 13.3194 69.7035 14.2683C69.7035 15.4281 69.2276 15.7268 67.3066 15.7268C65.6147 15.7268 65.1741 15.4632 65.086 14.3561H61.7374C61.8255 17.8531 62.9006 18.7493 67.1656 18.7493C71.9241 18.7493 73.1049 17.8004 73.1049 13.952C73.0521 11.0876 72.1885 10.2441 68.7694 9.92784Z" fill="#6B716A"/>
<path d="M50.9513 10.1914C50.9513 5.62255 49.3828 4.02344 44.8534 4.02344C40.324 4.02344 38.6497 6.09701 38.6497 11.2458C38.6497 16.869 40.2006 18.7493 45.1882 18.7493C48.7836 18.7493 50.2992 17.6598 50.8103 14.567H47.3912C47.0035 15.5159 46.5982 15.7268 45.1354 15.7268C42.9323 15.7268 42.3684 15.1118 42.245 12.4759H50.7046C50.8632 11.7027 50.9513 10.7889 50.9513 10.1914ZM42.2803 9.68182C42.3155 7.69612 43.1086 6.95807 45.012 6.95807C46.9154 6.95807 47.5675 7.69612 47.6204 9.68182H42.2803Z" fill="#6B716A"/>
<path d="M23.6517 4.23501H18.1001V0H14.5577V18.3634H18.1001V7.39808H23.1406V18.3634H26.6831V7.11692H23.6517V4.23501Z" fill="#6B716A"/>
<path d="M52.9429 4.85005V18.3634H56.4854V7.2575H60.7328V4.23501H56.4854V3.84841C56.5206 3.02249 56.7145 2.77648 57.4018 2.77648H61.2615V0H57.1022C54.2824 0 52.9429 0.861059 52.9429 4.85005Z" fill="#6B716A"/>
<path d="M29.2916 18.3628H32.834V7.5556H38.086V4.23438H29.2916V18.3628Z" fill="#6B716A"/>
</g>
<defs>
<clipPath id="clip0_2629_44653">
<rect width="73.0519" height="18.75" fill="white"/>
</clipPath>
</defs>
</svg>
