<svg width="150" height="16" viewBox="0 0 150 16" fill="none" xmlns="http://www.w3.org/2000/svg">
    <g clip-path="url(#clip0_2629_44637)">
        <path d="M42.8337 15.2332C41.4614 15.2332 40.2006 14.9006 39.0512 14.2352C37.9018 13.5699 36.9927 12.6664 36.324 11.5247C35.6622 10.3831 35.3313 9.12943 35.3313 7.76373C35.3313 6.39797 35.6622 5.1478 36.324 4.01319C36.9927 2.87158 37.9018 1.96809 39.0512 1.30273C40.2006 0.637364 41.4614 0.304688 42.8337 0.304688C43.8786 0.304688 44.8817 0.511299 45.8431 0.924525C46.8113 1.33774 47.6403 1.96458 48.3299 2.80504C49.0266 3.64549 49.4793 4.67154 49.6883 5.8832H47.0342C46.7626 4.82563 46.2471 4.0307 45.4878 3.49841C44.7285 2.96613 43.8194 2.69998 42.7606 2.69998C41.869 2.69998 41.0539 2.91359 40.3155 3.34083C39.5841 3.76106 39.0024 4.35637 38.5705 5.12679C38.1456 5.89721 37.9331 6.7797 37.9331 7.77422C37.9331 8.78278 38.1456 9.66873 38.5705 10.4321C38.9954 11.1956 39.5736 11.7874 40.3051 12.2076C41.0434 12.6208 41.862 12.8274 42.7606 12.8274C43.8194 12.8274 44.7285 12.5648 45.4878 12.0395C46.2471 11.5072 46.7591 10.7123 47.0238 9.65475H49.6883C49.4793 10.8734 49.03 11.903 48.3404 12.7434C47.6507 13.5839 46.8217 14.2107 45.8535 14.6239C44.8922 15.0301 43.8856 15.2332 42.8337 15.2332Z" fill="#6B716A"/>
        <path d="M55.7656 15.2559C54.8183 15.2559 53.9579 15.0002 53.1847 14.489C52.4115 13.9777 51.8054 13.2843 51.3665 12.4089C50.9277 11.5333 50.7083 10.5738 50.7083 9.53026C50.7083 8.49373 50.9277 7.53767 51.3665 6.66221C51.8124 5.78676 52.4184 5.09338 53.1847 4.58211C53.9579 4.06383 54.8148 3.80469 55.7552 3.80469C56.6329 3.80469 57.4096 3.99729 58.0853 4.3825C58.768 4.7607 59.2835 5.28599 59.6318 5.95835V4.13037H62.035V14.9302H59.6318V13.1127C59.2835 13.785 58.768 14.3104 58.0853 14.6885C57.4096 15.0668 56.6364 15.2559 55.7656 15.2559ZM56.3716 12.9026C56.9498 12.9026 57.4792 12.7555 57.9599 12.4614C58.4476 12.1602 58.8307 11.754 59.1093 11.2427C59.388 10.7244 59.5273 10.1536 59.5273 9.53026C59.5273 8.91392 59.3845 8.35015 59.0988 7.83888C58.8202 7.32062 58.4406 6.91085 57.9599 6.60971C57.4792 6.30854 56.9498 6.15796 56.3716 6.15796C55.7934 6.15796 55.2641 6.30154 54.7834 6.58867C54.3027 6.86884 53.9196 7.26456 53.634 7.77583C53.3554 8.2871 53.2161 8.87191 53.2161 9.53026C53.2161 10.2096 53.3589 10.8049 53.6444 11.3163C53.9301 11.8275 54.3132 12.2197 54.7938 12.4929C55.2745 12.766 55.8004 12.9026 56.3716 12.9026Z" fill="#6B716A"/>
        <path d="M67.0258 4.12891V6.08296C67.2833 5.47363 67.6563 4.99737 68.1438 4.65419C68.6383 4.304 69.2269 4.12891 69.9095 4.12891H71.0593V6.31408H70.0455C69.4672 6.31408 68.9587 6.45418 68.5201 6.73429C68.0809 7.01446 67.7396 7.42416 67.4962 7.96346C67.2521 8.50276 67.1301 9.15062 67.1301 9.90704V14.9287H64.6017V4.12891H67.0258Z" fill="#6B716A"/>
        <path d="M78.5886 15.2544C77.8087 15.2544 77.0841 15.0653 76.4155 14.6871C75.7538 14.3019 75.2383 13.7766 74.8691 13.1112V14.9287H72.4659V0.136719H74.9943V4.47556L74.9313 5.89383C75.2936 5.26349 75.7951 4.75921 76.4364 4.38101C77.0841 4.00281 77.7909 3.8137 78.5574 3.8137C79.5534 3.8137 80.4489 4.06934 81.2428 4.58062C82.0436 5.0919 82.6672 5.78527 83.1133 6.66072C83.5659 7.52919 83.7921 8.48525 83.7921 9.52877C83.7921 10.5793 83.5659 11.5424 83.1133 12.4179C82.6602 13.2863 82.0366 13.9762 81.2428 14.4875C80.4559 14.9987 79.5712 15.2544 78.5886 15.2544ZM78.129 12.9116C78.7004 12.9116 79.226 12.7751 79.7066 12.5019C80.1877 12.2217 80.5703 11.8261 80.8563 11.3148C81.1417 10.8035 81.2847 10.2082 81.2847 9.52877C81.2847 8.87042 81.1417 8.28561 80.8563 7.77434C80.5773 7.26307 80.1947 6.86735 79.7066 6.58718C79.226 6.30005 78.6966 6.15647 78.1188 6.15647C77.5474 6.15647 77.018 6.30705 76.5305 6.60822C76.0494 6.90237 75.6667 7.30858 75.3807 7.82684C75.1023 8.34517 74.9631 8.91243 74.9631 9.52877C74.9631 10.1731 75.1055 10.7544 75.3915 11.2727C75.6769 11.784 76.0602 12.1868 76.5407 12.4809C77.0282 12.7681 77.5576 12.9116 78.129 12.9116Z" fill="#6B716A"/>
        <path d="M90.7475 15.2559C89.6816 15.2559 88.7168 15.0002 87.853 14.489C86.9962 13.9777 86.3237 13.2878 85.8362 12.4193C85.3487 11.5439 85.1047 10.5808 85.1047 9.53026C85.1047 8.48674 85.3487 7.52719 85.8362 6.65172C86.3237 5.77625 86.9962 5.08288 87.853 4.5716C88.7168 4.06032 89.6854 3.80469 90.7576 3.80469C91.8375 3.80469 92.8093 4.06032 93.6731 4.5716C94.5369 5.08288 95.2125 5.77625 95.7 6.65172C96.1881 7.52719 96.4316 8.48674 96.4316 9.53026C96.4316 10.5808 96.1881 11.5439 95.7 12.4193C95.2125 13.2948 94.5337 13.9882 93.6629 14.4995C92.7992 15.0037 91.8273 15.2559 90.7475 15.2559ZM90.7685 12.8921C91.3672 12.8921 91.9036 12.7485 92.3778 12.4614C92.8583 12.1742 93.2345 11.775 93.5059 11.2637C93.785 10.7524 93.9242 10.1746 93.9242 9.53026C93.9242 8.89295 93.785 8.31863 93.5059 7.80735C93.2345 7.28909 92.8583 6.88638 92.3778 6.59922C91.8966 6.30504 91.3602 6.15796 90.7685 6.15796C90.1761 6.15796 89.6396 6.30504 89.1591 6.59922C88.6786 6.88638 88.2992 7.28909 88.0201 7.80735C87.7487 8.31863 87.6127 8.89295 87.6127 9.53026C87.6127 10.1746 87.7487 10.7524 88.0201 11.2637C88.2992 11.775 88.6748 12.1742 89.149 12.4614C89.6295 12.7485 90.1691 12.8921 90.7685 12.8921Z" fill="#6B716A"/>
        <path d="M100.628 4.13037V5.81127C100.942 5.20895 101.426 4.72569 102.081 4.36149C102.742 3.99029 103.481 3.80469 104.296 3.80469C105.724 3.80469 106.8 4.25993 107.525 5.17042C108.249 6.08092 108.611 7.39416 108.611 9.11007V14.9302H106.082V9.16257C106.082 8.12604 105.867 7.36613 105.435 6.88282C105.003 6.39259 104.39 6.14745 103.596 6.14745C103.088 6.14745 102.617 6.27702 102.185 6.53617C101.753 6.78831 101.405 7.16299 101.14 7.66028C100.883 8.15051 100.754 8.73532 100.754 9.41471V14.9302H98.2252V4.13037H100.628Z" fill="#6B716A"/>
        <path d="M109.788 6.30341V4.12873H111.93V3.50889C111.93 2.91357 112.045 2.34977 112.275 1.81748C112.505 1.28519 112.867 0.850958 113.362 0.514778C113.863 0.171592 114.497 0 115.264 0H117.322V2.11164H115.901C115.448 2.11164 115.093 2.26572 114.835 2.57389C114.584 2.88206 114.459 3.26026 114.459 3.7085V4.12873H117.269V6.30341H114.459V14.9286H111.93V6.30341H109.788Z" fill="#6B716A"/>
        <path d="M122.49 15.2559C121.543 15.2559 120.683 15.0002 119.909 14.489C119.136 13.9777 118.53 13.2843 118.091 12.4089C117.652 11.5333 117.433 10.5738 117.433 9.53026C117.433 8.49373 117.652 7.53767 118.091 6.66221C118.537 5.78676 119.143 5.09338 119.909 4.58211C120.683 4.06383 121.539 3.80469 122.479 3.80469C123.357 3.80469 124.134 3.99729 124.81 4.3825C125.492 4.7607 126.008 5.28599 126.356 5.95835V4.13037H128.76V14.9302H126.356V13.1127C126.008 13.785 125.492 14.3104 124.81 14.6885C124.134 15.0668 123.361 15.2559 122.49 15.2559ZM123.096 12.9026C123.674 12.9026 124.204 12.7555 124.684 12.4614C125.172 12.1602 125.555 11.754 125.833 11.2427C126.113 10.7244 126.252 10.1536 126.252 9.53026C126.252 8.91392 126.109 8.35015 125.823 7.83888C125.545 7.32062 125.165 6.91085 124.684 6.60971C124.204 6.30854 123.674 6.15796 123.096 6.15796C122.518 6.15796 121.989 6.30154 121.508 6.58867C121.027 6.86884 120.644 7.26456 120.358 7.77583C120.08 8.2871 119.94 8.87191 119.94 9.53026C119.94 10.2096 120.083 10.8049 120.369 11.3163C120.655 11.8275 121.038 12.2197 121.518 12.4929C121.999 12.766 122.525 12.9026 123.096 12.9026Z" fill="#6B716A"/>
        <path d="M136.112 15.2559C135.067 15.2559 134.119 15.0002 133.269 14.489C132.426 13.9777 131.765 13.2843 131.284 12.4089C130.804 11.5333 130.563 10.5738 130.563 9.53026C130.563 8.49373 130.804 7.53767 131.284 6.66221C131.765 5.78676 132.426 5.09338 133.269 4.58211C134.119 4.06383 135.067 3.80469 136.112 3.80469C137.01 3.80469 137.829 3.98328 138.567 4.34048C139.306 4.69067 139.922 5.18093 140.417 5.81127C140.911 6.4346 141.259 7.14551 141.461 7.94394H138.881C138.644 7.36263 138.282 6.9214 137.794 6.62019C137.314 6.31904 136.756 6.16847 136.122 6.16847C135.592 6.16847 135.095 6.30504 134.628 6.57818C134.161 6.8443 133.785 7.23303 133.499 7.7443C133.214 8.25557 133.071 8.85093 133.071 9.53026C133.071 10.2166 133.214 10.8155 133.499 11.3268C133.785 11.831 134.161 12.2197 134.628 12.4929C135.095 12.766 135.592 12.9026 136.122 12.9026C136.763 12.9026 137.327 12.745 137.815 12.4298C138.303 12.1077 138.658 11.6244 138.881 10.98H141.451C141.263 11.8135 140.922 12.5559 140.427 13.2073C139.939 13.8516 139.323 14.3559 138.578 14.7201C137.832 15.0773 137.01 15.2559 136.112 15.2559Z" fill="#6B716A"/>
        <path d="M147.309 14.9284C146.285 14.9284 145.435 14.6447 144.76 14.0774C144.084 13.5031 143.746 12.4175 143.746 10.8207V6.31371H141.52V4.12853H143.746V0.966325L146.275 0.945312V4.12853H149.493V6.31371H146.275V10.9362C146.275 12.1899 146.793 12.8167 147.831 12.8167H149.493V14.9284H147.309Z" fill="#6B716A"/>
        <path d="M0 7.39389C0 6.76427 0.549459 6.25391 1.22725 6.25391H27.4022C28.08 6.25391 28.6295 6.76427 28.6295 7.39389V8.1648C28.6295 8.79436 28.08 9.30474 27.4022 9.30474H1.22725C0.549458 9.30474 0 8.79436 0 8.1648V7.39389Z" fill="#D8DCD8"/>
        <path d="M8.98464 7.7805C8.98464 9.12846 7.8937 10.2212 6.54809 10.2212C5.20239 10.2212 4.11151 9.12846 4.11151 7.7805C4.11151 6.43259 5.20239 5.33984 6.54809 5.33984C7.8937 5.33984 8.98464 6.43259 8.98464 7.7805Z" fill="#6B716A"/>
        <path fill-rule="evenodd" clip-rule="evenodd" d="M6.54851 5.73976C5.43019 5.73976 4.51833 6.64947 4.51833 7.77822C4.51833 8.90691 5.43019 9.81664 6.54851 9.81664C7.66684 9.81664 8.57866 8.90691 8.57866 7.77822C8.57866 6.64947 7.66684 5.73976 6.54851 5.73976ZM2.89368 7.77822C2.89368 5.7592 4.52708 4.11719 6.54851 4.11719C8.56995 4.11719 10.2033 5.7592 10.2033 7.77822C10.2033 9.79719 8.56995 11.4392 6.54851 11.4392C4.52708 11.4392 2.89368 9.79719 2.89368 7.77822Z" fill="#6B716A"/>
        <path d="M13.0979 1.58428C13.0979 1.12999 13.4616 0.761719 13.9103 0.761719H14.7221C15.1708 0.761719 15.5344 1.12999 15.5344 1.58428V13.9731C15.5344 14.4274 15.1708 14.7956 14.7221 14.7956H13.9103C13.4616 14.7956 13.0979 14.4274 13.0979 13.9731V1.58428Z" fill="#6B716A"/>
    </g>
    <defs>
        <clipPath id="clip0_2629_44637">
            <rect width="150" height="15.2542" fill="white"/>
        </clipPath>
    </defs>
</svg>
