<svg width="598" height="240" viewBox="0 0 598 240" fill="none" xmlns="http://www.w3.org/2000/svg">
<path d="M68.5378 153.798L112.801 72.3391C112.976 72.0166 112.77 71.6191 112.405 71.5812C91.8975 69.4535 71.3671 82.9886 63.4063 96.8346C55.5562 110.488 62.7092 139.758 67.5997 153.731C67.7479 154.155 68.3236 154.193 68.5378 153.798Z" fill="#6B716A" fill-opacity="0.4"/>
<path d="M170.983 86.7043L126.722 167.66C126.545 167.982 126.752 168.381 127.117 168.419C147.624 170.532 168.153 157.08 176.113 143.32C183.964 129.75 176.81 100.659 171.92 86.7717C171.771 86.3495 171.197 86.3116 170.983 86.7043Z" fill="#6B716A" fill-opacity="0.4"/>
<path d="M114.627 179.836V128.536C114.627 127.387 113.695 126.455 112.545 126.455H82.9321C64.342 126.455 62.3103 107.168 64.342 95.9351C56.5403 106.871 55.6057 122.958 56.1136 129.634V179.836C56.1136 182.135 57.9772 183.999 60.276 183.999H110.464C112.763 183.999 114.627 182.135 114.627 179.836Z" fill="#6B716A"/>
<path d="M125.861 60.1624L125.861 111.462C125.861 112.612 126.793 113.543 127.942 113.543L157.291 113.543C175.727 113.543 177.741 132.83 175.727 144.063C183.463 133.127 184.39 117.04 183.887 110.364L183.886 60.1624C183.886 57.8636 182.023 56 179.724 56L130.023 56C127.725 56 125.861 57.8636 125.861 60.1624Z" fill="#6B716A"/>
<path d="M280.34 184C278.995 184 277.906 182.908 277.906 181.562V86.1007C277.906 59.1923 303.776 52.465 327.163 57.5826C328.257 57.822 329.02 58.8033 329.02 59.9249V76.1391C329.02 77.7685 327.455 78.9468 325.863 78.6113C318.883 77.1399 308.073 76.5898 308.073 84.8045V181.562C308.073 182.908 306.983 184 305.639 184H280.34Z" fill="#6B716A"/>
<path d="M329.02 120V101.714C329.02 100.368 327.931 99.2762 326.586 99.2762H258.433C257.089 99.2762 255.999 100.368 255.999 101.714V120C255.999 121.347 257.089 122.438 258.433 122.438H326.586C327.931 122.438 329.02 121.347 329.02 120Z" fill="#6B716A"/>
<path d="M343.625 184C342.28 184 341.191 182.908 341.191 181.562V101.105C341.191 99.7582 342.28 98.6667 343.625 98.6667H369.182C370.526 98.6667 371.616 99.7582 371.616 101.105V181.562C371.616 182.908 370.526 184 369.182 184H343.625Z" fill="#6B716A"/>
<path d="M345.665 82.0015C348.648 84.9846 352.227 86.4762 356.403 86.4762C360.617 86.4762 364.196 84.9846 367.142 82.0015C370.125 79.0184 371.616 75.4306 371.616 71.2381C371.616 67.0456 370.125 63.4578 367.142 60.4747C364.196 57.4916 360.617 56 356.403 56C352.227 56 348.648 57.4916 345.665 60.4747C342.682 63.4578 341.191 67.0456 341.191 71.2381C341.191 75.4306 342.682 79.0184 345.665 82.0015Z" fill="#6B716A"/>
<path d="M411.778 56C413.122 56 414.212 57.0916 414.212 58.4381V181.562C414.212 182.908 413.122 184 411.778 184H386.22C384.876 184 383.786 182.908 383.786 181.562V58.4381C383.786 57.0916 384.876 56 386.22 56H411.778Z" fill="#6B716A"/>
<path d="M430.857 82.0015C433.839 84.9846 437.419 86.4762 441.595 86.4762C445.808 86.4762 449.388 84.9846 452.333 82.0015C455.316 79.0184 456.808 75.4306 456.808 71.2381C456.808 67.0456 455.316 63.4578 452.333 60.4747C449.388 57.4916 445.808 56 441.595 56C437.419 56 433.839 57.4916 430.857 60.4747C427.874 63.4578 426.382 67.0456 426.382 71.2381C426.382 75.4306 427.874 79.0184 430.857 82.0015Z" fill="#6B716A"/>
<path d="M428.816 184C427.472 184 426.382 182.908 426.382 181.562V101.105C426.382 99.7582 427.472 98.6667 428.816 98.6667H454.374C455.718 98.6667 456.808 99.7582 456.808 101.105V181.562C456.808 182.908 455.718 184 454.374 184H428.816Z" fill="#6B716A"/>
<path d="M471.412 184C470.068 184 468.978 182.908 468.978 181.562V167.98C468.978 167.418 469.172 166.873 469.526 166.438L505.306 122.535C505.354 122.476 505.38 122.403 505.38 122.328C505.38 122.147 505.234 122 505.053 122H471.412C470.068 122 468.978 120.908 468.978 119.562V101.105C468.978 99.7582 470.068 98.6667 471.412 98.6667H539.565C540.909 98.6667 541.999 99.7582 541.999 101.105V116.474C541.999 117.03 541.809 117.569 541.462 118.003L507.619 160.132C507.573 160.19 507.547 160.263 507.547 160.338C507.547 160.52 507.694 160.667 507.875 160.667H539.565C540.909 160.667 541.999 161.758 541.999 163.105V181.562C541.999 182.908 540.909 184 539.565 184H471.412Z" fill="#6B716A"/>
</svg>
