<svg xmlns="http://www.w3.org/2000/svg" xmlns:xlink="http://www.w3.org/1999/xlink" viewBox="0 0 72 36">
  <path d="M 22.178 26 C 21.256 26 20.508 25.252 20.508 24.329 L 20.508 13.397 C 20.508 12.475 21.256 11.727 22.178 11.727 C 23.101 11.727 23.848 12.475 23.848 13.397 L 23.848 24.33 C 23.848 25.253 23.101 26 22.178 26 Z M 46.249 11.566 C 47.389 11.566 48.396 11.789 49.269 12.234 C 50.16 12.68 50.855 13.366 51.354 14.293 C 51.853 15.202 52.102 16.378 52.102 17.821 L 52.102 24.329 C 52.102 25.252 51.355 26 50.432 26 C 49.509 26 48.761 25.252 48.761 24.329 L 48.761 18.248 C 48.761 16.984 48.485 16.039 47.933 15.415 C 47.38 14.791 46.588 14.479 45.554 14.479 C 44.824 14.479 44.173 14.64 43.603 14.961 C 43.051 15.282 42.614 15.754 42.293 16.378 C 41.99 17.001 41.839 17.794 41.839 18.757 L 41.839 24.329 C 41.839 25.252 41.091 26 40.168 26 C 39.245 26 38.497 25.252 38.497 24.329 L 38.497 18.248 C 38.497 16.984 38.221 16.039 37.669 15.415 C 37.117 14.791 36.324 14.479 35.29 14.479 C 34.56 14.479 33.909 14.64 33.339 14.961 C 32.787 15.282 32.35 15.754 32.029 16.378 C 31.726 17.001 31.575 17.794 31.575 18.757 L 31.575 24.329 C 31.575 25.252 30.827 26 29.904 26 C 28.982 26 28.234 25.252 28.234 24.329 L 28.234 13.317 C 28.234 12.439 28.946 11.727 29.824 11.727 L 30.69 11.727 C 31.09 11.727 31.414 12.051 31.414 12.451 L 31.414 14.401 C 31.414 14.681 31.039 14.77 30.913 14.52 C 30.876 14.445 30.876 14.355 30.917 14.281 C 31.378 13.43 32.081 12.736 32.938 12.288 C 33.865 11.807 34.916 11.566 36.092 11.566 C 37.429 11.566 38.587 11.896 39.567 12.556 C 40.345 13.07 40.918 13.79 41.284 14.717 C 41.423 15.068 41.077 15.387 40.721 15.263 C 40.459 15.172 40.327 14.876 40.461 14.633 C 40.933 13.777 41.623 13.075 42.534 12.529 C 43.603 11.887 44.841 11.566 46.249 11.566 Z M 62.813 26.187 C 61.352 26.187 60.051 25.875 58.91 25.252 C 57.794 24.633 56.862 23.729 56.211 22.632 C 55.552 21.527 55.222 20.271 55.222 18.863 C 55.222 17.438 55.552 16.181 56.212 15.094 C 56.859 14.001 57.792 13.105 58.911 12.502 C 60.051 11.878 61.352 11.566 62.813 11.566 C 64.292 11.566 65.602 11.878 66.743 12.502 C 67.901 13.126 68.801 13.981 69.442 15.067 C 70.101 16.155 70.431 17.42 70.431 18.863 C 70.431 20.271 70.101 21.527 69.441 22.632 C 68.801 23.737 67.901 24.61 66.743 25.252 C 65.602 25.875 64.292 26.187 62.813 26.187 Z M 62.812 23.327 C 63.633 23.327 64.363 23.149 65.005 22.792 C 65.646 22.436 66.145 21.919 66.502 21.242 C 66.876 20.565 67.063 19.772 67.063 18.863 C 67.063 17.937 66.875 17.143 66.502 16.484 C 66.145 15.807 65.647 15.29 65.005 14.934 C 64.363 14.578 63.642 14.4 62.839 14.4 C 62.02 14.4 61.289 14.578 60.648 14.934 C 60.024 15.29 59.525 15.807 59.151 16.484 C 58.777 17.144 58.59 17.937 58.59 18.863 C 58.59 19.772 58.777 20.565 59.151 21.242 C 59.526 21.919 60.024 22.436 60.648 22.792 C 61.289 23.149 62.011 23.327 62.813 23.327 Z M 24.142 3.686 C 24.142 4.894 23.164 5.873 21.956 5.873 C 20.749 5.873 19.77 4.894 19.77 3.686 C 19.77 2.479 20.749 1.5 21.956 1.5 C 23.164 1.5 24.142 2.479 24.142 3.686 Z" fill="#6B716A"></path>
  <path d="M 10.74 25.424 C 13.719 25.424 16.237 23.08 16.239 20.064 C 16.239 20.063 16.24 20.061 16.242 20.061 C 16.243 20.061 16.244 20.06 16.244 20.059 L 16.244 9.832 C 16.244 8.92 15.506 8.182 14.594 8.182 C 13.683 8.182 12.944 8.92 12.944 9.832 L 12.944 20.059 C 12.944 20.06 12.943 20.061 12.942 20.061 C 12.941 20.061 12.94 20.061 12.94 20.061 C 12.939 20.062 12.939 20.062 12.939 20.063 C 12.937 21.145 12.01 22.123 10.739 22.123 C 10.428 22.124 10.119 22.062 9.832 21.941 C 8.994 21.584 8.006 21.091 7.165 21.442 C 6.323 21.791 5.91 22.782 6.499 23.477 C 7.558 24.717 9.108 25.429 10.739 25.423 Z M 10.232 30.456 C 9.442 30 8.392 30.368 7.505 30.574 C 6.946 30.701 6.359 30.609 5.866 30.317 C 5.596 30.162 5.36 29.954 5.172 29.705 C 4.625 28.977 4.015 28.057 3.111 27.939 C 2.207 27.821 1.354 28.472 1.517 29.369 C 1.814 30.972 2.801 32.364 4.216 33.175 C 6.311 34.385 8.914 34.105 10.628 32.56 C 11.305 31.949 11.021 30.911 10.231 30.456 Z" fill="#6B716A"></path>
</svg>
