<svg width="100%" height="100%" viewBox="0 0 1680 258" fill="none" xmlns="http://www.w3.org/2000/svg">
<path d="M195.489 253.784C190.034 253.784 184.804 251.155 181.499 246.756L85.0734 118.064V253.771H0.234375V6.29785H90.2099C95.7314 6.29785 100.987 8.96693 104.279 13.4467L190.472 130.51V6.29785H275.311V253.771H195.476L195.489 253.784Z" fill="#6B716A"></path>
<path d="M422.797 257.994C402.844 257.994 385.353 256.079 370.815 252.302C356.343 248.539 343.879 243.397 333.757 237.009C323.688 230.675 315.388 223.31 309.096 215.154C302.778 206.959 297.776 198.134 294.252 188.921C290.713 179.654 288.279 170.213 287.016 160.852C285.739 151.358 285.087 142.252 285.087 133.788V123.504C285.087 114.812 285.739 105.586 287.016 96.0913C288.279 86.6905 290.713 77.3701 294.238 68.3845C297.75 59.4122 302.711 50.681 308.99 42.4453C315.201 34.2899 323.435 27.0719 333.451 20.9922C343.64 14.8054 356.117 9.82379 370.549 6.19472C385.1 2.52547 402.685 0.664062 422.81 0.664062H435.047C455.186 0.664062 472.757 2.52547 487.295 6.19472C501.767 9.85057 514.244 14.8322 524.38 21.0056C534.449 27.1389 542.682 34.3569 548.841 42.4587C555.106 50.681 560.081 59.4122 563.592 68.3979C567.13 77.4505 569.565 86.7709 570.815 96.1047C572.079 105.532 572.73 114.746 572.73 123.517V133.802C572.73 142.225 572.092 151.331 570.815 160.866C569.551 170.266 567.117 179.707 563.579 188.921C560.081 198.08 555.119 206.919 548.841 215.181C542.629 223.337 534.369 230.688 524.326 237.009C514.204 243.384 501.701 248.526 487.149 252.302C472.517 256.079 454.973 257.994 435.034 257.994H422.797ZM428.663 73.8615C418.048 73.8615 409.043 75.415 401.887 78.4682C394.664 81.5482 388.825 85.6594 384.515 90.6946C380.245 95.6762 377.173 101.381 375.377 107.635C373.648 113.661 372.77 119.687 372.77 125.552V129.664C372.77 135.73 373.688 141.984 375.497 148.278C377.346 154.706 380.525 160.678 384.954 166.008C389.423 171.378 395.276 175.77 402.379 179.078C409.469 182.399 418.314 184.073 428.663 184.073C439.011 184.073 448.016 182.453 455.119 179.265C462.222 176.078 468.088 171.793 472.557 166.544C476.973 161.348 480.166 155.429 482.041 148.947C483.85 142.667 484.768 136.413 484.768 130.333V125.526C484.768 119.674 483.85 113.634 482.028 107.568C480.152 101.327 477 95.636 472.65 90.6544C468.274 85.646 462.395 81.5482 455.186 78.4682C448.029 75.415 439.104 73.8615 428.663 73.8615Z" fill="#6B716A"></path>
<path d="M1047.91 253.784H989.707L944.194 108.434V253.784H860.376V6.29785H963.942C970.648 6.29785 976.825 10.2545 979.721 16.384L1018.65 142.433L1057.59 16.0621C1060.54 10.1204 1066.63 6.29785 1073.21 6.29785H1177.34V253.771H1093.29V108.42L1047.89 253.771L1047.91 253.784Z" fill="#6B716A"></path>
<path d="M1469.15 253.784V6.29785H1553.99V184.898H1680V253.784H1469.15Z" fill="#6B716A"></path>
<path d="M1372.43 217.603H1272.67L1261.68 253.73H1184.32L1262.7 6.29785L1382.57 6.29785L1460.79 253.744L1383.83 253.784L1372.43 217.603ZM1291.2 160.932H1353.91L1322.57 60.5557L1291.2 160.932Z" fill="#6B716A"></path>
<path d="M794.132 137.113C816.133 141.912 829.921 164.468 835.749 186.476C841.577 208.47 842.134 231.898 850.584 253.007C828.12 253.007 805.669 253.007 783.204 253.02C778.423 253.02 773.124 252.833 769.667 249.482C767.257 247.163 766.25 243.772 765.323 240.542C761.455 226.979 757.574 213.402 753.706 199.838C751.653 192.654 749.176 184.867 743.004 180.766C737.918 177.389 731.454 177.295 725.374 177.308C706.46 177.348 687.558 177.389 668.644 177.429L668.379 253.784L583.886 253.757V6.7318C644.868 6.58437 705.877 6.43694 766.873 6.30291C779.098 6.27611 791.43 6.2627 803.39 8.84943C815.351 11.4362 827.047 16.8777 835.113 26.1791C842.769 35.0115 846.597 46.6853 847.961 58.3457C850.187 77.3507 846.889 101.543 833.921 116.245C824.53 126.793 811.947 133.883 798.132 136.403L794.132 137.127V137.113ZM668.525 120.293H739.997C746.792 120.293 751.905 118.189 755.23 114.034H755.442L756.607 112.05C759.468 107.132 760.806 101.543 760.806 94.4794C760.806 87.4162 759.323 81.2375 756.395 76.5734C754.13 72.968 749.441 68.6792 739.997 68.6792H668.525V120.28V120.293Z" fill="#6B716A"></path>
</svg>
